{
  "accessors": [
    {
      "name": "11804_Airplane_body_1_0_positions",
      "componentType": 5126,
      "count": 43033,
      "min": [
        -264.88720703125,
        -546.776611328125,
        -0.09629999846220016
      ],
      "max": [
        562.002197265625,
        546.776611328125,
        256.03021240234375
      ],
      "type": "VEC3",
      "bufferView": 0,
      "byteOffset": 0
    },
    {
      "name": "11804_Airplane_body_1_0_normals",
      "componentType": 5126,
      "count": 43033,
      "min": [
        -0.9999983906745911,
        -1,
        -1
      ],
      "max": [
        0.9999778866767883,
        1,
        1
      ],
      "type": "VEC3",
      "bufferView": 1,
      "byteOffset": 0
    },
    {
      "name": "11804_Airplane_body_1_0_texcoords",
      "componentType": 5126,
      "count": 43033,
      "min": [
        0.002400000113993883,
        0.00039999998989515007
      ],
      "max": [
        0.9975000023841858,
        0.996999979019165
      ],
      "type": "VEC2",
      "bufferView": 2,
      "byteOffset": 0
    },
    {
      "name": "11804_Airplane_body_1_0_indices",
      "componentType": 5123,
      "count": 234540,
      "min": [
        0
      ],
      "max": [
        43032
      ],
      "type": "SCALAR",
      "bufferView": 3,
      "byteOffset": 0
    },
    {
      "name": "11804_Airplane_glass_1_0_positions",
      "componentType": 5126,
      "count": 1638,
      "min": [
        -135.6761016845703,
        -54.86669921875,
        132.51690673828125
      ],
      "max": [
        146.8531951904297,
        54.866798400878906,
        192.7866973876953
      ],
      "type": "VEC3",
      "bufferView": 0,
      "byteOffset": 516396
    },
    {
      "name": "11804_Airplane_glass_1_0_normals",
      "componentType": 5126,
      "count": 1638,
      "min": [
        -0.9998332262039185,
        -0.9994447827339172,
        -0.9948670864105225
      ],
      "max": [
        0.9997752904891968,
        0.9994447827339172,
        0.9936278462409973
      ],
      "type": "VEC3",
      "bufferView": 1,
      "byteOffset": 516396
    },
    {
      "name": "11804_Airplane_glass_1_0_texcoords",
      "componentType": 5126,
      "count": 1638,
      "min": [
        0.32100000977516174,
        0.7720000147819519
      ],
      "max": [
        0.6888999938964844,
        0.9961000084877014
      ],
      "type": "VEC2",
      "bufferView": 2,
      "byteOffset": 344264
    },
    {
      "name": "11804_Airplane_glass_1_0_indices",
      "componentType": 5123,
      "count": 9072,
      "min": [
        0
      ],
      "max": [
        1637
      ],
      "type": "SCALAR",
      "bufferView": 3,
      "byteOffset": 469080
    }
  ],
  "asset": {
    "generator": "obj2gltf",
    "version": "2.0"
  },
  "buffers": [
    {
      "name": "model",
      "byteLength": 2017804,
      "uri": "data:application/octet-stream;base64,"
    }
  ],
  "bufferViews": [
    {
      "name": "bufferView_0",
      "buffer": 0,
      "byteLength": 536052,
      "byteOffset": 0,
      "byteStride": 12,
      "target": 34962
    },
    {
      "name": "bufferView_1",
      "buffer": 0,
      "byteLength": 536052,
      "byteOffset": 536052,
      "byteStride": 12,
      "target": 34962
    },
    {
      "name": "bufferView_2",
      "buffer": 0,
      "byteLength": 357368,
      "byteOffset": 1072104,
      "byteStride": 8,
      "target": 34962
    },
    {
      "name": "bufferView_3",
      "buffer": 0,
      "byteLength": 487224,
      "byteOffset": 1429472,
      "target": 34963
    },
    {
      "buffer": 0,
      "byteOffset": 1916696,
      "byteLength": 101107
    }
  ],
  "images": [
    {
      "name": "11804_Airplane_diff",
      "mimeType": "image/jpeg",
      "bufferView": 4
    }
  ],
  "materials": [
    {
      "name": "01___11804_Airplane_body",
      "pbrMetallicRoughness": {
        "baseColorTexture": {
          "index": 0
        },
        "baseColorFactor": [
          1,
          1,
          1,
          1
        ],
        "metallicFactor": 0,
        "roughnessFactor": 0.963
      },
      "emissiveFactor": [
        0,
        0,
        0
      ],
      "alphaMode": "OPAQUE",
      "doubleSided": false
    },
    {
      "name": "02___11804_Airplane_glass",
      "pbrMetallicRoughness": {
        "baseColorTexture": {
          "index": 0
        },
        "baseColorFactor": [
          1,
          1,
          1,
          0.7
        ],
        "metallicFactor": 0,
        "roughnessFactor": 0.945
      },
      "emissiveFactor": [
        0,
        0,
        0
      ],
      "alphaMode": "BLEND",
      "doubleSided": true
    }
  ],
  "meshes": [
    {
      "name": "11804_Airplane_body_1",
      "primitives": [
        {
          "attributes": {
            "POSITION": 0,
            "NORMAL": 1,
            "TEXCOORD_0": 2
          },
          "indices": 3,
          "material": 0,
          "mode": 4
        }
      ]
    },
    {
      "name": "11804_Airplane_glass_1",
      "primitives": [
        {
          "attributes": {
            "POSITION": 4,
            "NORMAL": 5,
            "TEXCOORD_0": 6
          },
          "indices": 7,
          "material": 1,
          "mode": 4
        }
      ]
    }
  ],
  "nodes": [
    {
      "name": "11804_Airplane_body",
      "mesh": 0
    },
    {
      "name": "11804_Airplane_glass",
      "mesh": 1
    }
  ],
  "samplers": [
    {
      "wrapS": 10497,
      "wrapT": 10497
    }
  ],
  "scene": 0,
  "scenes": [
    {
      "nodes": [
        0,
        1
      ]
    }
  ],
  "textures": [
    {
      "name": "11804_Airplane_diff",
      "sampler": 0,
      "source": 0
    }
  ]
}
